# xmcd
#
# Track frame offsets:
#	150
#	17971
#	35501
#	50945
#	66906
#	85107
#	114668
#	132258
#	148939
#	168532
#	187540
#	208904
#
# Disc length: 3028 seconds
#
# Revision: 0
# Processed by: cddbd v1.5.2PL0 Copyright (c) Steve Scherf et al.
# Submitted via: EasyCDDAExtractor 10.0.5.1
#
DISCID=b40bd20c
DTITLE=Grupo Aventura - Dos Locos
DYEAR=2004
DGENRE=Latin
TTITLE0=Dos locos
TTITLE1=Corazon
TTITLE2=La Guerra
TTITLE3=Abrazame
TTITLE4=Polos opuestos
TTITLE5=Sin miedo a nada
TTITLE6=Te quiero igual que aller
TTITLE7=Amor eterno
TTITLE8=Llorando penas
TTITLE9=Chico de la calle
TTITLE10=No ha sido facil
TTITLE11=Sin control
EXTD=
EXTT0=
EXTT1=
EXTT2=
EXTT3=
EXTT4=
EXTT5=
EXTT6=
EXTT7=
EXTT8=
EXTT9=
EXTT10=
EXTT11=
PLAYORDER=
